<?xml version="1.0" standalone="no"?>
<!DOCTYPE svg PUBLIC "-//W3C//DTD SVG 20010904//EN"
 "http://www.w3.org/TR/2001/REC-SVG-20010904/DTD/svg10.dtd">
<svg version="1.0" xmlns="http://www.w3.org/2000/svg"
 width="428.000000pt" height="88.000000pt" viewBox="0 0 428.000000 88.000000"
 preserveAspectRatio="xMidYMid meet">

<g transform="translate(0.000000,88.000000) scale(0.100000,-0.100000)"
fill="#000000" stroke="none">
<path d="M118 673 c-65 -66 -71 -91 -33 -129 20 -20 28 -23 45 -14 11 6 20 19
20 29 0 15 -7 19 -32 17 -26 -1 -34 3 -36 20 -5 37 19 45 129 42 l104 -3 -53
-34 c-37 -24 -50 -37 -43 -44 7 -7 11 -65 11 -147 0 -146 -6 -166 -50 -172
-25 -4 -25 -4 4 -13 40 -11 76 4 103 44 21 32 23 44 23 185 0 144 10 204 26
163 11 -30 0 -330 -14 -354 -42 -75 -222 -68 -196 8 7 21 7 49 -1 57 -9 10
-35 -15 -35 -35 0 -106 145 -123 295 -34 l40 24 -3 205 c-3 188 -2 207 14 219
15 11 0 13 -93 13 -61 0 -123 3 -139 6 -25 4 -36 -2 -86 -53z"/>
<path d="M2885 707 c-12 -12 -38 -37 -58 -55 -43 -37 -48 -71 -16 -103 20 -20
21 -20 41 -2 l20 18 -23 3 c-26 4 -49 19 -49 33 0 4 7 15 16 23 12 12 37 16
107 16 l91 0 -56 -50 c-72 -64 -98 -117 -98 -200 0 -53 4 -69 26 -97 53 -70
109 -87 183 -57 36 14 42 14 70 0 56 -30 149 -13 217 39 l32 25 32 -36 c17
-20 33 -34 35 -32 2 2 5 100 6 217 l1 214 -43 23 c-24 13 -54 29 -66 35 -19
10 -28 6 -79 -37 -140 -119 -154 -141 -117 -193 15 -22 15 -25 0 -36 -22 -16
-21 -25 1 -25 26 0 42 -20 42 -50 0 -25 -16 -46 -48 -64 -20 -12 -52 70 -52
134 0 75 29 132 103 208 l61 62 -166 0 c-91 0 -172 2 -180 5 -7 3 -22 -5 -33
-18z m478 -90 c12 -10 17 -28 17 -60 0 -41 -5 -51 -37 -82 -21 -19 -41 -35
-45 -35 -5 0 -8 50 -8 110 l0 111 28 -16 c15 -8 35 -21 45 -28z m-265 -38
c-61 -72 -150 -159 -160 -159 -27 0 20 136 64 186 28 32 34 34 90 34 l59 0
-53 -61z m110 -21 c-2 -30 -8 -43 -18 -43 -19 0 -26 51 -9 71 21 25 30 15 27
-28z m2 -93 c0 -8 -4 -15 -10 -15 -5 0 -10 7 -10 15 0 8 5 15 10 15 6 0 10 -7
10 -15z m170 -4 c0 -10 -20 -35 -45 -55 -40 -33 -45 -35 -45 -17 0 19 65 90
83 91 4 0 7 -8 7 -19z m-355 -13 c-6 -23 -62 -78 -77 -78 -19 0 -5 28 29 62
44 43 57 47 48 16z m355 -89 c0 -45 -3 -51 -32 -69 -49 -30 -58 -26 -58 25 0
25 3 45 8 45 4 0 21 13 37 29 17 16 33 27 38 24 4 -2 7 -26 7 -54z m-320 -64
c28 -25 25 -35 -9 -35 -31 0 -75 30 -92 63 -10 18 -8 25 22 49 l33 28 13 -43
c7 -24 22 -52 33 -62z m212 35 c3 -59 3 -60 -24 -60 -31 0 -78 19 -78 31 0 9
82 88 92 89 3 0 8 -27 10 -60z"/>
<path d="M2707 677 c-32 -33 -35 -34 -51 -19 -9 10 -16 12 -16 5 0 -7 5 -15
10 -18 6 -4 10 -71 10 -167 0 -127 -3 -165 -15 -178 -13 -14 -10 -19 20 -43
l35 -28 25 28 c27 31 30 39 15 48 -15 9 -13 368 2 383 6 6 9 15 5 18 -4 4 -22
-9 -40 -29z"/>
<path d="M2200 668 c0 -35 -36 -87 -65 -94 -27 -7 -35 -34 -10 -34 12 0 15
-18 15 -106 0 -58 -5 -115 -11 -126 -9 -17 -6 -25 19 -51 l31 -30 32 31 c26
25 30 34 20 46 -7 8 -14 57 -16 121 -3 89 -1 107 12 112 32 13 45 -26 40 -120
-3 -59 -1 -87 6 -84 10 3 11 246 1 256 -2 3 -10 -1 -16 -7 -27 -27 -38 -13
-38 48 0 33 -4 60 -10 60 -5 0 -10 -10 -10 -22z"/>
<path d="M3850 669 c0 -32 -31 -78 -62 -92 -30 -13 -38 -37 -13 -37 23 0 22
-212 -1 -235 -9 -9 -15 -17 -13 -18 2 -1 18 -15 36 -31 l32 -29 35 30 c32 29
33 32 18 47 -24 24 -28 224 -5 233 32 13 45 -26 40 -120 -3 -56 -1 -87 5 -85
10 4 12 247 2 257 -2 3 -10 -1 -16 -7 -27 -27 -38 -13 -38 48 0 33 -4 60 -10
60 -5 0 -10 -9 -10 -21z"/>
<path d="M2363 550 c-27 -16 -33 -26 -33 -54 0 -58 60 -86 100 -46 29 29 26
50 -9 50 -20 0 -30 -6 -34 -20 -7 -29 -35 -25 -43 6 -10 40 25 69 82 69 36 0
50 -5 65 -24 28 -34 24 -58 -16 -98 -34 -34 -38 -35 -90 -30 l-55 6 0 -54 c0
-30 -4 -56 -9 -59 -5 -3 4 -20 20 -37 l29 -31 21 26 c29 36 92 37 129 1 l27
-26 30 29 c28 25 29 30 17 47 -10 14 -14 52 -14 138 0 118 0 120 -20 102 -18
-17 -21 -16 -63 4 -54 26 -93 27 -134 1z m147 -184 c0 -30 -5 -58 -11 -61 -19
-12 -81 -7 -90 7 -16 25 -11 68 9 68 9 0 31 9 47 19 17 11 33 20 38 20 4 1 7
-23 7 -53z"/>
<path d="M507 531 c-25 -24 -27 -29 -13 -40 23 -19 22 -157 0 -189 -9 -13 -14
-24 -13 -25 2 -1 18 -12 36 -24 l32 -23 26 24 c22 20 25 28 16 45 -12 21 -15
139 -5 165 4 11 19 16 50 16 l44 0 0 -88 c0 -54 -5 -93 -12 -100 -6 -6 -10
-13 -7 -14 2 -2 16 -14 32 -27 l27 -25 29 28 c28 27 29 30 14 52 -12 19 -14
39 -9 96 4 40 12 76 19 80 23 15 66 8 77 -11 15 -30 12 -138 -5 -165 -14 -21
-13 -24 15 -51 l30 -29 32 32 c25 25 30 34 20 44 -17 17 -16 175 1 181 7 2 0
15 -21 35 l-33 31 -24 -25 c-35 -35 -83 -32 -120 6 l-29 30 -24 -30 c-19 -24
-31 -30 -62 -30 -32 0 -44 6 -62 30 -12 17 -24 30 -27 29 -3 0 -19 -13 -34
-28z"/>
<path d="M1017 531 c-25 -25 -26 -29 -13 -41 21 -17 22 -157 2 -185 -12 -17
-11 -22 16 -47 l30 -28 28 23 c19 14 27 27 23 37 -10 22 -16 138 -9 166 6 21
12 24 51 24 l45 0 0 -88 c0 -48 -5 -93 -10 -98 -7 -7 0 -20 20 -39 l30 -29 29
28 c28 27 29 30 14 52 -13 20 -14 38 -7 102 9 77 9 77 40 80 49 5 64 -18 64
-96 0 -43 -5 -75 -15 -88 -13 -19 -12 -23 15 -49 l29 -28 30 24 c31 25 38 43
21 54 -14 9 -13 158 2 173 8 8 3 19 -22 42 l-32 30 -20 -25 c-30 -38 -88 -35
-123 7 l-27 32 -25 -32 c-34 -44 -83 -45 -123 -2 -15 17 -30 30 -32 29 -1 -1
-16 -13 -31 -28z"/>
<path d="M1530 444 c0 -65 -5 -124 -11 -136 -9 -17 -6 -25 20 -51 l31 -31 29
21 c37 28 109 33 141 10 14 -9 28 -17 32 -17 5 0 8 48 8 108 0 82 4 113 16
130 9 13 14 24 12 25 -1 1 -18 15 -35 31 l-33 29 -20 -26 c-18 -23 -29 -27
-74 -27 -43 0 -57 4 -76 25 -13 14 -27 25 -32 25 -4 0 -8 -52 -8 -116z m180
26 c6 -11 10 -55 8 -98 l-3 -77 -41 -3 c-63 -5 -74 12 -74 114 l0 84 50 0 c39
0 51 -4 60 -20z"/>
<path d="M1877 529 c-27 -26 -28 -30 -13 -44 21 -21 22 -129 2 -167 -14 -26
-13 -29 15 -59 l30 -32 32 31 c25 25 29 34 19 44 -7 7 -12 43 -12 94 0 94 14
112 57 72 24 -23 25 -23 21 -205 -2 -142 0 -183 10 -183 9 0 12 44 12 187 0
176 1 188 21 209 l21 23 -22 30 c-26 37 -30 38 -60 6 -13 -14 -29 -25 -35 -25
-6 0 -22 11 -35 25 -13 14 -26 24 -29 24 -3 -1 -19 -14 -34 -30z"/>
<path d="M3526 528 c-25 -24 -27 -31 -15 -38 15 -10 20 -134 7 -180 -6 -19 -2
-32 17 -53 l26 -29 31 31 c25 24 29 34 20 43 -19 19 -16 162 3 178 13 11 20 9
41 -11 l25 -24 -2 -179 c-1 -126 2 -181 10 -184 8 -3 11 50 11 186 0 176 1
190 20 207 26 23 25 30 -5 63 l-24 26 -29 -27 c-35 -33 -42 -34 -72 -2 -13 14
-26 24 -29 24 -3 -1 -19 -15 -35 -31z"/>
<path d="M152 507 l-22 -24 20 -18 c25 -23 25 -37 0 -60 -25 -23 -25 -26 6
-48 24 -18 26 -18 45 -1 20 18 26 44 9 44 -5 0 -14 9 -19 19 -8 14 -6 25 10
45 20 26 20 28 4 46 -23 25 -27 25 -53 -3z"/>
</g>
</svg>
